<svg width="912" height="128" viewBox="0 0 912 128" fill="none" xmlns="http://www.w3.org/2000/svg">
<g clip-path="url(#clip0)">
<path d="M23.6875 111H6.5V17.4375H23.6875V111Z" fill="#54669C"/>
<path d="M56.875 25.875C56.875 27.4583 56.5625 28.9375 55.9375 30.3125C55.3542 31.6875 54.5417 32.8958 53.5 33.9375C52.4583 34.9375 51.2292 35.75 49.8125 36.375C48.4375 36.9583 46.9583 37.25 45.375 37.25C43.7917 37.25 42.2917 36.9583 40.875 36.375C39.5 35.75 38.2917 34.9375 37.25 33.9375C36.25 32.8958 35.4375 31.6875 34.8125 30.3125C34.2292 28.9375 33.9375 27.4583 33.9375 25.875C33.9375 24.3333 34.2292 22.875 34.8125 21.5C35.4375 20.0833 36.25 18.875 37.25 17.875C38.2917 16.8333 39.5 16.0208 40.875 15.4375C42.2917 14.8125 43.7917 14.5 45.375 14.5C46.9583 14.5 48.4375 14.8125 49.8125 15.4375C51.2292 16.0208 52.4583 16.8333 53.5 17.875C54.5417 18.875 55.3542 20.0833 55.9375 21.5C56.5625 22.875 56.875 24.3333 56.875 25.875ZM53.9375 111H36.75V44.0625H53.9375V111Z" fill="#A54A5E"/>
<path d="M84.0625 111H67V17.4375H84.0625V47C86.1042 45.4583 88.2083 44.375 90.375 43.75C92.5417 43.0833 94.75 42.75 97 42.75C101.125 42.75 105 43.5417 108.625 45.125C112.25 46.6667 115.396 48.8125 118.062 51.5625C120.771 54.2708 122.896 57.4583 124.438 61.125C126.021 64.75 126.812 68.625 126.812 72.75V111H109.625V72.75H109.75C109.75 71 109.417 69.3542 108.75 67.8125C108.083 66.2292 107.167 64.8542 106 63.6875C104.833 62.5208 103.479 61.6042 101.938 60.9375C100.396 60.2708 98.75 59.9375 97 59.9375C95.2083 59.9375 93.5208 60.2708 91.9375 60.9375C90.3542 61.6042 88.9792 62.5208 87.8125 63.6875C86.6458 64.8542 85.7292 66.2292 85.0625 67.8125C84.3958 69.3542 84.0625 71 84.0625 72.75V111Z" fill="#E84311"/>
<path d="M206 76.9375C206 82.1875 205.104 86.9792 203.312 91.3125C201.521 95.6458 199.083 99.375 196 102.5C192.917 105.583 189.292 107.979 185.125 109.688C181 111.396 176.562 112.25 171.812 112.25C167.104 112.25 162.667 111.375 158.5 109.625C154.375 107.875 150.75 105.438 147.625 102.312C144.542 99.1875 142.104 95.4792 140.312 91.1875C138.521 86.8542 137.625 82.1042 137.625 76.9375V17.4375H154.75V48.6875C155.667 47.5208 156.771 46.4792 158.062 45.5625C159.396 44.6458 160.812 43.8958 162.312 43.3125C163.854 42.7292 165.438 42.2917 167.062 42C168.688 41.6667 170.271 41.5 171.812 41.5C176.562 41.5 181 42.3958 185.125 44.1875C189.292 45.9375 192.917 48.3958 196 51.5625C199.083 54.7292 201.521 58.4792 203.312 62.8125C205.104 67.1042 206 71.8125 206 76.9375ZM188.812 76.9375C188.812 74.3542 188.354 71.9583 187.438 69.75C186.562 67.5 185.354 65.5625 183.812 63.9375C182.271 62.3125 180.458 61.0417 178.375 60.125C176.333 59.2083 174.146 58.75 171.812 58.75C169.479 58.75 167.271 59.2708 165.188 60.3125C163.146 61.3125 161.354 62.6667 159.812 64.375C158.271 66.0417 157.062 67.9792 156.188 70.1875C155.312 72.3542 154.875 74.6042 154.875 76.9375C154.875 79.5208 155.312 81.9167 156.188 84.125C157.062 86.3333 158.271 88.25 159.812 89.875C161.354 91.5 163.146 92.7917 165.188 93.75C167.271 94.6667 169.479 95.125 171.812 95.125C174.146 95.125 176.333 94.6667 178.375 93.75C180.458 92.7917 182.271 91.5 183.812 89.875C185.354 88.25 186.562 86.3333 187.438 84.125C188.354 81.9167 188.812 79.5208 188.812 76.9375Z" fill="#F27502"/>
<path d="M232.562 111H215.5V44.0625H219.625L225.25 52C228 49.5 231.125 47.5833 234.625 46.25C238.125 44.875 241.75 44.1875 245.5 44.1875H260.562V61.1875H245.5C243.708 61.1875 242.021 61.5208 240.438 62.1875C238.854 62.8542 237.479 63.7708 236.312 64.9375C235.146 66.1042 234.229 67.4792 233.562 69.0625C232.896 70.6458 232.562 72.3333 232.562 74.125V111Z" fill="#759F53"/>
<path d="M284 111H265.562L302.688 21.375H321.125L284 111ZM392.438 111H388.312L381.688 101.812C380.062 103.271 378.333 104.646 376.5 105.938C374.708 107.188 372.812 108.292 370.812 109.25C368.812 110.167 366.75 110.896 364.625 111.438C362.542 111.979 360.417 112.25 358.25 112.25C353.542 112.25 349.104 111.375 344.938 109.625C340.812 107.833 337.188 105.375 334.062 102.25C330.979 99.0833 328.542 95.3542 326.75 91.0625C324.958 86.7292 324.062 82.0208 324.062 76.9375C324.062 71.8958 324.958 67.2083 326.75 62.875C328.542 58.5417 330.979 54.7917 334.062 51.625C337.188 48.4583 340.812 45.9792 344.938 44.1875C349.104 42.3958 353.542 41.5 358.25 41.5C359.75 41.5 361.292 41.625 362.875 41.875C364.5 42.125 366.062 42.5417 367.562 43.125C369.104 43.6667 370.542 44.3958 371.875 45.3125C373.208 46.2292 374.333 47.3542 375.25 48.6875V17.4375H392.438V111ZM375.25 76.9375C375.25 74.6042 374.792 72.3542 373.875 70.1875C373 67.9792 371.792 66.0417 370.25 64.375C368.708 62.6667 366.896 61.3125 364.812 60.3125C362.771 59.2708 360.583 58.75 358.25 58.75C355.917 58.75 353.708 59.1667 351.625 60C349.583 60.8333 347.792 62.0417 346.25 63.625C344.75 65.1667 343.562 67.0625 342.688 69.3125C341.812 71.5625 341.375 74.1042 341.375 76.9375C341.375 79.3958 341.812 81.7292 342.688 83.9375C343.562 86.1458 344.75 88.0833 346.25 89.75C347.792 91.4167 349.583 92.7292 351.625 93.6875C353.708 94.6458 355.917 95.125 358.25 95.125C360.583 95.125 362.771 94.625 364.812 93.625C366.896 92.5833 368.708 91.2292 370.25 89.5625C371.792 87.8542 373 85.9167 373.875 83.75C374.792 81.5417 375.25 79.2708 375.25 76.9375ZM425.625 25.875C425.625 27.4583 425.312 28.9375 424.688 30.3125C424.104 31.6875 423.292 32.8958 422.25 33.9375C421.208 34.9375 419.979 35.75 418.562 36.375C417.188 36.9583 415.708 37.25 414.125 37.25C412.542 37.25 411.042 36.9583 409.625 36.375C408.25 35.75 407.042 34.9375 406 33.9375C405 32.8958 404.188 31.6875 403.562 30.3125C402.979 28.9375 402.688 27.4583 402.688 25.875C402.688 24.3333 402.979 22.875 403.562 21.5C404.188 20.0833 405 18.875 406 17.875C407.042 16.8333 408.25 16.0208 409.625 15.4375C411.042 14.8125 412.542 14.5 414.125 14.5C415.708 14.5 417.188 14.8125 418.562 15.4375C419.979 16.0208 421.208 16.8333 422.25 17.875C423.292 18.875 424.104 20.0833 424.688 21.5C425.312 22.875 425.625 24.3333 425.625 25.875ZM422.688 111H405.5V44.0625H422.688V111ZM500.562 111H496.438L489.812 101.812C488.188 103.271 486.458 104.646 484.625 105.938C482.833 107.188 480.938 108.292 478.938 109.25C476.938 110.167 474.875 110.896 472.75 111.438C470.667 111.979 468.542 112.25 466.375 112.25C461.667 112.25 457.229 111.458 453.062 109.875C448.938 108.292 445.312 106 442.188 103C439.104 99.9583 436.667 96.25 434.875 91.875C433.083 87.5 432.188 82.5208 432.188 76.9375C432.188 71.7292 433.083 66.9583 434.875 62.625C436.667 58.25 439.104 54.5 442.188 51.375C445.312 48.25 448.938 45.8333 453.062 44.125C457.229 42.375 461.667 41.5 466.375 41.5C468.542 41.5 470.688 41.7708 472.812 42.3125C474.938 42.8542 477 43.6042 479 44.5625C481 45.5208 482.896 46.6458 484.688 47.9375C486.521 49.2292 488.229 50.625 489.812 52.125L496.438 44.1875H500.562V111ZM483.375 76.9375C483.375 74.6042 482.917 72.3542 482 70.1875C481.125 67.9792 479.917 66.0417 478.375 64.375C476.833 62.6667 475.021 61.3125 472.938 60.3125C470.896 59.2708 468.708 58.75 466.375 58.75C464.042 58.75 461.833 59.1458 459.75 59.9375C457.708 60.7292 455.917 61.8958 454.375 63.4375C452.875 64.9792 451.688 66.8958 450.812 69.1875C449.938 71.4375 449.5 74.0208 449.5 76.9375C449.5 79.8542 449.938 82.4583 450.812 84.75C451.688 87 452.875 88.8958 454.375 90.4375C455.917 91.9792 457.708 93.1458 459.75 93.9375C461.833 94.7292 464.042 95.125 466.375 95.125C468.708 95.125 470.896 94.625 472.938 93.625C475.021 92.5833 476.833 91.2292 478.375 89.5625C479.917 87.8542 481.125 85.9167 482 83.75C482.917 81.5417 483.375 79.2708 483.375 76.9375ZM530.812 136.5H513.625V44.0625H517.75L524.562 52.125C526.104 50.6667 527.792 49.2917 529.625 48C531.458 46.7083 533.354 45.6042 535.312 44.6875C537.312 43.7292 539.375 42.9792 541.5 42.4375C543.625 41.8958 545.771 41.625 547.938 41.625C552.646 41.625 557.062 42.4792 561.188 44.1875C565.354 45.8542 568.979 48.2292 572.062 51.3125C575.188 54.3958 577.646 58.125 579.438 62.5C581.229 66.8333 582.125 71.6458 582.125 76.9375C582.125 82.4375 581.229 87.3958 579.438 91.8125C577.646 96.1875 575.188 99.9167 572.062 103C568.979 106.042 565.354 108.375 561.188 110C557.062 111.625 552.646 112.438 547.938 112.438C546.438 112.438 544.938 112.271 543.438 111.938C541.979 111.604 540.521 111.167 539.062 110.625C537.646 110.042 536.229 109.396 534.812 108.688C533.438 107.979 532.104 107.25 530.812 106.5V136.5ZM565 76.9375C565 74.1042 564.542 71.5625 563.625 69.3125C562.75 67.0625 561.542 65.1667 560 63.625C558.458 62.0417 556.646 60.8333 554.562 60C552.479 59.1667 550.271 58.75 547.938 58.75C545.604 58.75 543.396 59.1667 541.312 60C539.271 60.8333 537.479 62.0417 535.938 63.625C534.396 65.1667 533.167 67.0625 532.25 69.3125C531.375 71.5625 530.938 74.1042 530.938 76.9375C530.938 79.6458 531.375 82.125 532.25 84.375C533.167 86.625 534.396 88.5417 535.938 90.125C537.479 91.7083 539.271 92.9375 541.312 93.8125C543.396 94.6875 545.604 95.125 547.938 95.125C550.271 95.125 552.479 94.6875 554.562 93.8125C556.646 92.9375 558.458 91.7083 560 90.125C561.542 88.5417 562.75 86.625 563.625 84.375C564.542 82.125 565 79.6458 565 76.9375ZM656.312 76.9375C656.312 81.9375 655.417 86.6042 653.625 90.9375C651.833 95.2292 649.396 98.9583 646.312 102.125C643.229 105.25 639.604 107.729 635.438 109.562C631.312 111.354 626.875 112.25 622.125 112.25C617.417 112.25 612.979 111.354 608.812 109.562C604.688 107.729 601.062 105.25 597.938 102.125C594.854 98.9583 592.417 95.2292 590.625 90.9375C588.833 86.6042 587.938 81.9375 587.938 76.9375C587.938 71.8542 588.833 67.1458 590.625 62.8125C592.417 58.4792 594.854 54.75 597.938 51.625C601.062 48.4583 604.688 45.9792 608.812 44.1875C612.979 42.3958 617.417 41.5 622.125 41.5C626.875 41.5 631.312 42.3542 635.438 44.0625C639.604 45.7292 643.229 48.125 646.312 51.25C649.396 54.3333 651.833 58.0625 653.625 62.4375C655.417 66.7708 656.312 71.6042 656.312 76.9375ZM639.125 76.9375C639.125 74.1875 638.667 71.7083 637.75 69.5C636.875 67.25 635.667 65.3333 634.125 63.75C632.583 62.125 630.771 60.8958 628.688 60.0625C626.646 59.1875 624.458 58.75 622.125 58.75C619.792 58.75 617.583 59.1875 615.5 60.0625C613.458 60.8958 611.667 62.125 610.125 63.75C608.625 65.3333 607.438 67.25 606.562 69.5C605.688 71.7083 605.25 74.1875 605.25 76.9375C605.25 79.5208 605.688 81.9167 606.562 84.125C607.438 86.3333 608.625 88.25 610.125 89.875C611.667 91.5 613.458 92.7917 615.5 93.75C617.583 94.6667 619.792 95.125 622.125 95.125C624.458 95.125 626.646 94.6875 628.688 93.8125C630.771 92.9375 632.583 91.7083 634.125 90.125C635.667 88.5417 636.875 86.625 637.75 84.375C638.667 82.125 639.125 79.6458 639.125 76.9375ZM702.5 111H663.5V94H702.5C703.667 94 704.667 93.5833 705.5 92.75C706.333 91.9167 706.75 90.9167 706.75 89.75C706.75 88.5417 706.333 87.75 705.5 87.375C704.667 87 703.667 86.8125 702.5 86.8125H684.75C681.792 86.8125 679.021 86.25 676.438 85.125C673.854 84 671.604 82.4792 669.688 80.5625C667.771 78.6042 666.25 76.3333 665.125 73.75C664.042 71.1667 663.5 68.3958 663.5 65.4375C663.5 62.4792 664.042 59.7083 665.125 57.125C666.25 54.5417 667.771 52.2917 669.688 50.375C671.604 48.4583 673.854 46.9583 676.438 45.875C679.021 44.75 681.792 44.1875 684.75 44.1875H719.312V61.1875H684.75C683.583 61.1875 682.583 61.6042 681.75 62.4375C680.917 63.2708 680.5 64.2708 680.5 65.4375C680.5 66.6458 680.917 67.6875 681.75 68.5625C682.583 69.3958 683.583 69.8125 684.75 69.8125H702.5C705.417 69.8125 708.167 70.3125 710.75 71.3125C713.333 72.2708 715.583 73.625 717.5 75.375C719.417 77.125 720.938 79.2292 722.062 81.6875C723.188 84.1458 723.75 86.8333 723.75 89.75C723.75 92.7083 723.188 95.4792 722.062 98.0625C720.938 100.604 719.417 102.854 717.5 104.812C715.583 106.729 713.333 108.25 710.75 109.375C708.167 110.458 705.417 111 702.5 111ZM753 25.875C753 27.4583 752.688 28.9375 752.062 30.3125C751.479 31.6875 750.667 32.8958 749.625 33.9375C748.583 34.9375 747.354 35.75 745.938 36.375C744.562 36.9583 743.083 37.25 741.5 37.25C739.917 37.25 738.417 36.9583 737 36.375C735.625 35.75 734.417 34.9375 733.375 33.9375C732.375 32.8958 731.562 31.6875 730.938 30.3125C730.354 28.9375 730.062 27.4583 730.062 25.875C730.062 24.3333 730.354 22.875 730.938 21.5C731.562 20.0833 732.375 18.875 733.375 17.875C734.417 16.8333 735.625 16.0208 737 15.4375C738.417 14.8125 739.917 14.5 741.5 14.5C743.083 14.5 744.562 14.8125 745.938 15.4375C747.354 16.0208 748.583 16.8333 749.625 17.875C750.667 18.875 751.479 20.0833 752.062 21.5C752.688 22.875 753 24.3333 753 25.875ZM750.062 111H732.875V44.0625H750.062V111ZM796.688 111C792.562 111 788.688 110.229 785.062 108.688C781.438 107.104 778.25 104.958 775.5 102.25C772.792 99.5 770.646 96.3125 769.062 92.6875C767.521 89.0625 766.75 85.1875 766.75 81.0625V61.1875H758.438V44.1875H766.75V17.4375H783.75V44.1875H809.625V61.1875H783.75V81.0625C783.75 82.8542 784.083 84.5417 784.75 86.125C785.417 87.6667 786.333 89.0208 787.5 90.1875C788.667 91.3542 790.042 92.2917 791.625 93C793.208 93.6667 794.896 94 796.688 94H809.625V111H796.688ZM839.375 25.875C839.375 27.4583 839.062 28.9375 838.438 30.3125C837.854 31.6875 837.042 32.8958 836 33.9375C834.958 34.9375 833.729 35.75 832.312 36.375C830.938 36.9583 829.458 37.25 827.875 37.25C826.292 37.25 824.792 36.9583 823.375 36.375C822 35.75 820.792 34.9375 819.75 33.9375C818.75 32.8958 817.938 31.6875 817.312 30.3125C816.729 28.9375 816.438 27.4583 816.438 25.875C816.438 24.3333 816.729 22.875 817.312 21.5C817.938 20.0833 818.75 18.875 819.75 17.875C820.792 16.8333 822 16.0208 823.375 15.4375C824.792 14.8125 826.292 14.5 827.875 14.5C829.458 14.5 830.938 14.8125 832.312 15.4375C833.729 16.0208 834.958 16.8333 836 17.875C837.042 18.875 837.854 20.0833 838.438 21.5C839.062 22.875 839.375 24.3333 839.375 25.875ZM836.438 111H819.25V44.0625H836.438V111ZM868.5 111L843 44.0625H862.438L877.062 85.8125L891.625 44.0625H911.125L885.625 111H868.5Z" fill="#FFF7F7"/>
</g>
<defs>
<clipPath id="clip0">
<rect width="912" height="128" fill="white"/>
</clipPath>
</defs>
</svg>
