<svg width="808" height="128" viewBox="0 0 808 128" fill="none" xmlns="http://www.w3.org/2000/svg">
<g clip-path="url(#clip0_2542_286)">
<path d="M9.088 14.56V108H20.864V14.56H9.088Z" fill="#54669C"/>
<path d="M33.584 34.912C35.248 36.448 37.296 37.216 39.856 37.216C42.16 37.216 44.208 36.448 46 34.912C47.792 33.376 48.688 31.328 48.688 28.768C48.688 26.208 47.792 24.16 46.128 22.624C44.336 21.088 42.288 20.192 39.856 20.192C37.296 20.192 35.248 21.088 33.584 22.624C31.792 24.16 31.024 26.208 31.024 28.768C31.024 31.328 31.792 33.376 33.584 34.912ZM45.744 47.712H33.968V108H45.744V47.712Z" fill="#A54A5E"/>
<path d="M70.24 14.56H58.848V108H70.624V73.696C70.624 68.832 72.032 64.864 74.848 61.792C77.664 58.72 81.504 57.184 86.368 57.184C91.104 57.184 94.944 58.72 97.76 61.792C100.576 64.864 101.984 68.832 101.984 73.696V108H113.76V72.544C113.76 67.552 112.736 63.072 110.816 58.976C108.896 55.008 106.08 51.808 102.496 49.504C98.784 47.2 94.432 46.048 89.44 46.048C85.344 46.048 81.632 46.816 78.304 48.352C74.976 49.888 72.288 52.32 70.24 55.392V14.56Z" fill="#E84311"/>
<path d="M146.851 106.976C150.691 108.768 154.915 109.664 159.523 109.664C165.283 109.664 170.403 108.256 174.883 105.44C179.235 102.624 182.691 98.784 185.123 93.92C187.555 89.056 188.835 83.68 188.835 77.664C188.835 71.776 187.555 66.528 185.123 61.664C182.691 56.928 179.235 53.088 174.883 50.272C170.403 47.456 165.283 46.048 159.523 46.048C155.043 46.048 150.819 46.944 146.979 48.608C143.011 50.4 139.811 52.832 137.379 56.16V14.56H125.603V108H137.379V99.04C139.939 102.624 143.011 105.184 146.851 106.976ZM171.299 92.768C167.843 96.736 163.235 98.656 157.347 98.656C151.203 98.656 146.467 96.736 143.139 92.768C139.683 88.928 138.019 83.936 138.019 77.792C138.019 71.904 139.683 66.912 143.139 62.944C146.595 58.976 151.331 56.928 157.347 56.928C163.235 56.928 167.843 58.976 171.299 62.944C174.755 66.912 176.547 71.904 176.547 77.792C176.547 83.808 174.755 88.8 171.299 92.768Z" fill="#F27602"/>
<path d="M197.983 47.712V108H209.759V69.088C209.759 65.504 210.527 62.56 212.191 60.384C213.855 58.208 216.159 57.056 219.231 57.056C222.047 57.056 224.223 57.952 225.759 59.616C227.295 61.28 227.935 63.456 227.935 66.272H239.583C239.711 60.384 238.303 55.776 235.487 52.192C232.671 48.608 228.447 46.816 223.071 46.816C219.999 46.816 217.311 47.456 215.007 48.736C212.703 50.016 210.911 51.808 209.759 54.368V47.712H197.983Z" fill="#759F53"/>
<path d="M287.341 12.768L239.469 115.04H252.525L300.269 12.768H287.341ZM310.599 105.44C314.951 108.256 320.071 109.664 325.959 109.664C330.567 109.664 334.663 108.768 338.503 106.976C342.343 105.184 345.543 102.624 348.103 99.04V108H359.879V14.56H348.103V56.16C345.671 52.832 342.471 50.4 338.631 48.608C334.663 46.944 330.439 46.048 325.959 46.048C320.071 46.048 314.951 47.456 310.599 50.272C306.247 53.088 302.791 56.928 300.359 61.664C297.927 66.528 296.775 71.776 296.775 77.664C296.775 83.68 297.927 89.056 300.359 93.92C302.791 98.784 306.247 102.624 310.599 105.44ZM342.343 92.768C338.887 96.736 334.151 98.656 328.135 98.656C322.247 98.656 317.511 96.736 314.055 92.768C310.599 88.8 308.935 83.808 308.935 77.792C308.935 71.904 310.599 66.912 314.055 62.944C317.511 58.976 322.247 56.928 328.135 56.928C334.151 56.928 338.887 58.976 342.343 62.944C345.799 66.912 347.591 71.904 347.591 77.792C347.591 83.936 345.799 88.928 342.343 92.768ZM372.489 34.912C374.153 36.448 376.201 37.216 378.761 37.216C381.065 37.216 383.113 36.448 384.905 34.912C386.697 33.376 387.593 31.328 387.593 28.768C387.593 26.208 386.697 24.16 385.033 22.624C383.241 21.088 381.193 20.192 378.761 20.192C376.201 20.192 374.153 21.088 372.489 22.624C370.697 24.16 369.929 26.208 369.929 28.768C369.929 31.328 370.697 33.376 372.489 34.912ZM384.649 47.712H372.873V108H384.649V47.712ZM407.609 105.44C412.089 108.256 417.209 109.664 422.969 109.664C427.577 109.664 431.673 108.768 435.513 106.976C439.225 105.184 442.425 102.624 445.113 99.04V108H456.889V47.712H445.113V56.672C442.553 53.216 439.353 50.528 435.513 48.736C431.673 46.944 427.449 46.048 422.969 46.048C417.209 46.048 412.089 47.456 407.609 50.272C403.129 53.088 399.673 56.928 397.241 61.792C394.809 66.656 393.657 71.904 393.657 77.664C393.657 83.552 394.809 89.056 397.241 93.92C399.673 98.784 403.129 102.624 407.609 105.44ZM439.353 92.768C435.897 96.736 431.161 98.656 425.145 98.656C419.129 98.656 414.393 96.736 410.937 92.768C407.481 88.8 405.817 83.808 405.817 77.792C405.817 71.904 407.481 67.04 410.937 62.944C414.393 58.976 419.129 56.928 425.145 56.928C431.033 56.928 435.769 58.976 439.225 62.944C442.681 66.912 444.473 71.904 444.473 77.792C444.473 83.936 442.681 88.928 439.353 92.768ZM469.758 47.712V133.6H481.534V99.68C483.966 103.008 487.166 105.44 491.006 107.104C494.846 108.896 499.07 109.664 503.678 109.664C509.438 109.664 514.558 108.384 519.038 105.568C523.39 102.752 526.846 99.04 529.278 94.176C531.582 89.312 532.862 83.936 532.862 77.92C532.862 72.032 531.582 66.784 529.15 61.92C526.718 57.056 523.262 53.216 518.91 50.4C514.558 47.584 509.438 46.048 503.678 46.048C499.07 46.048 494.846 46.944 491.006 48.736C487.166 50.528 484.094 53.216 481.534 56.672V47.712H469.758ZM515.454 92.896C511.998 96.864 507.39 98.784 501.502 98.784C495.358 98.784 490.622 96.864 487.166 92.896C483.71 89.056 482.046 84.064 482.046 78.048C482.046 71.904 483.71 66.912 487.166 62.944C490.622 59.104 495.358 57.056 501.502 57.056C507.39 57.056 511.998 59.104 515.454 63.072C518.91 67.04 520.702 72.032 520.702 78.048C520.702 84.064 518.91 89.056 515.454 92.896ZM553.152 105.44C558.016 108.256 563.648 109.664 569.92 109.664C576.064 109.664 581.696 108.256 586.56 105.44C591.424 102.624 595.264 98.784 597.952 93.92C600.64 89.056 602.048 83.68 602.048 77.664C602.048 71.904 600.64 66.656 597.952 61.792C595.264 56.928 591.424 53.088 586.56 50.272C581.696 47.456 576.064 46.048 569.92 46.048C563.648 46.048 558.016 47.456 553.152 50.272C548.288 53.088 544.448 56.928 541.76 61.792C539.072 66.656 537.792 71.904 537.792 77.664C537.792 83.68 539.072 89.056 541.76 93.92C544.448 98.784 548.288 102.624 553.152 105.44ZM584.64 92.768C580.928 96.736 576.064 98.656 569.92 98.656C563.776 98.656 558.912 96.736 555.328 92.768C551.616 88.8 549.824 83.808 549.824 77.664C549.824 71.776 551.616 66.784 555.328 62.816C558.912 58.976 563.776 56.928 569.92 56.928C575.936 56.928 580.8 58.976 584.512 62.816C588.224 66.784 590.144 71.776 590.144 77.664C590.144 83.808 588.224 88.928 584.64 92.768ZM614.221 105.824C618.573 108.384 623.693 109.664 629.709 109.664C633.805 109.664 637.645 109.024 641.229 107.488C644.813 105.952 647.629 103.776 649.805 100.96C651.853 98.144 653.005 94.688 653.005 90.848C653.005 85.984 651.341 82.016 648.269 78.816C645.069 75.616 640.717 73.312 635.341 71.776L628.685 69.856C626.253 69.216 624.333 68.32 622.925 67.296C621.517 66.272 620.877 64.736 620.877 62.816C620.877 60.768 621.645 59.232 623.309 58.208C624.973 57.184 627.021 56.544 629.453 56.544C634.317 56.544 637.645 58.336 639.437 61.92L649.549 57.312C647.885 53.728 645.325 50.912 641.741 48.992C638.157 47.2 634.061 46.176 629.453 46.176C625.869 46.176 622.413 46.944 619.213 48.224C616.013 49.632 613.453 51.552 611.533 54.112C609.485 56.672 608.589 59.744 608.589 63.072C608.589 71.52 613.837 77.28 624.461 80.352L631.757 82.4C637.773 84.192 640.845 87.264 640.845 91.36C640.845 93.92 639.693 95.968 637.517 97.248C635.341 98.656 632.781 99.296 629.709 99.296C626.381 99.296 623.437 98.656 621.005 97.12C618.573 95.584 616.781 93.408 615.757 90.592L605.645 95.328C606.925 99.808 609.869 103.264 614.221 105.824ZM660.889 34.912C662.553 36.448 664.601 37.216 667.161 37.216C669.465 37.216 671.513 36.448 673.305 34.912C675.097 33.376 675.993 31.328 675.993 28.768C675.993 26.208 675.097 24.16 673.433 22.624C671.641 21.088 669.593 20.192 667.161 20.192C664.601 20.192 662.553 21.088 660.889 22.624C659.097 24.16 658.329 26.208 658.329 28.768C658.329 31.328 659.097 33.376 660.889 34.912ZM673.049 47.712H661.273V108H673.049V47.712ZM703.049 47.712V27.104H697.929L678.985 58.464H691.273V108H703.049V58.464H723.145V47.712H703.049ZM727.774 34.912C729.438 36.448 731.486 37.216 734.046 37.216C736.35 37.216 738.398 36.448 740.19 34.912C741.982 33.376 742.878 31.328 742.878 28.768C742.878 26.208 741.982 24.16 740.318 22.624C738.526 21.088 736.478 20.192 734.046 20.192C731.486 20.192 729.438 21.088 727.774 22.624C725.982 24.16 725.214 26.208 725.214 28.768C725.214 31.328 725.982 33.376 727.774 34.912ZM739.934 47.712H728.158V108H739.934V47.712ZM758.67 47.712H745.358L775.566 108.384H780.814L811.278 47.712H797.966L778.382 88.16L758.67 47.712Z" fill="#FAF1F1"/>
</g>
<defs>
<clipPath id="clip0_2542_286">
<rect width="808" height="128" fill="white"/>
</clipPath>
</defs>
</svg>
